Coordinates
version=1
nRows=60
nColumns=12
inDegrees=yes

Units are S.I. units (second, meters, Newtons, ...)
Angles are in degrees

endheader
time	SC_y	SC_z	SC_x	AC_y	AC_z	AC_x	GH_y	GH_z	GH_yy	EL_x	PS_y
       0.0              -48.96          25.81          80.57          57.62           3.73         -16.28         -84.66          55.23         -36.67          116.3          104.5
   0.02953              -48.96           25.8          80.57          57.61           3.73         -16.27         -84.65          55.23         -36.64          116.3          104.5
   0.05906              -48.96           25.8          80.56          57.61          3.731         -16.27         -84.63          55.22         -36.61          116.3          104.6
   0.08859              -48.95           25.8          80.56           57.6          3.732         -16.26         -84.62          55.21         -36.58          116.3          104.6
    0.1181              -48.95           25.8          80.55           57.6          3.732         -16.26          -84.6          55.21         -36.55          116.3          104.6
    0.1477              -48.94          25.79          80.55          57.59          3.733         -16.25         -84.58           55.2         -36.51          116.2          104.6
    0.1772              -48.94          25.79          80.54          57.59          3.734         -16.24         -84.56          55.19         -36.47          116.2          104.6
    0.2067              -48.93          25.79          80.53          57.58          3.735         -16.24         -84.54          55.18         -36.43          116.2          104.6
    0.2362              -48.93          25.79          80.53          57.58          3.736         -16.23         -84.52          55.17         -36.38          116.2          104.6
    0.2658              -48.92          25.78          80.52          57.57          3.737         -16.22         -84.49          55.16         -36.34          116.2          104.6
    0.2953              -48.91          25.78          80.51          57.56          3.738         -16.21         -84.47          55.15         -36.28          116.2          104.6
    0.3248               -48.9          25.77           80.5          57.56          3.739          -16.2         -84.44          55.14         -36.23          116.2          104.6
    0.3544               -48.9          25.77          80.49          57.55           3.74         -16.19         -84.41          55.13         -36.17          116.2          104.6
    0.3839              -48.89          25.77          80.48          57.54          3.741         -16.18         -84.38          55.11          -36.1          116.2          104.6
    0.4134              -48.88          25.76          80.47          57.53          3.743         -16.17         -84.35           55.1         -36.03          116.2          104.7
     0.443              -48.87          25.76          80.46          57.52          3.744         -16.16         -84.31          55.08         -35.96          116.2          104.7
    0.4725              -48.86          25.75          80.45          57.51          3.746         -16.14         -84.27          55.07         -35.87          116.2          104.7
     0.502              -48.84          25.74          80.44           57.5          3.747         -16.13         -84.22          55.05         -35.78          116.2          104.7
    0.5316              -48.83          25.74          80.42          57.48          3.749         -16.11         -84.17          55.03         -35.69          116.2          104.7
    0.5611              -48.81          25.73           80.4          57.47          3.752         -16.09         -84.12          55.01         -35.58          116.2          104.7
    0.5906               -48.8          25.72          80.39          57.45          3.754         -16.07         -84.06          54.98         -35.46          116.2          104.8
    0.6202              -48.78          25.71          80.37          57.43          3.756         -16.05          -84.0          54.95         -35.33          116.2          104.8
    0.6497              -48.76           25.7          80.34          57.42          3.759         -16.03         -83.93          54.92         -35.19          116.1          104.8
    0.6792              -48.74          25.69          80.32          57.39          3.762          -16.0         -83.85          54.89         -35.03          116.1          104.8
    0.7087              -48.72          25.68          80.29          57.37          3.766         -15.97         -83.76          54.85         -34.85          116.1          104.9
    0.7383              -48.69          25.67          80.26          57.34           3.77         -15.94         -83.66          54.81         -34.65          116.1          104.9
    0.7678              -48.66          25.65          80.23          57.31          3.774          -15.9         -83.55          54.77         -34.43          116.1          104.9
    0.7973              -48.62          25.63          80.19          57.28          3.779         -15.86         -83.43          54.71         -34.18          116.1          105.0
    0.8269              -48.59          25.61          80.15          57.24          3.785         -15.81         -83.29          54.66          -33.9          116.0          105.0
    0.8564              -48.54          25.59           80.1           57.2          3.791         -15.76         -83.13          54.59         -33.58          116.0          105.1
    0.8859              -48.49          25.57          80.05          57.15          3.798          -15.7         -82.95          54.51         -33.21          116.0          105.1
    0.9155              -48.43          25.54          79.98          57.09          3.807         -15.63         -82.75          54.43          -32.8          116.0          105.2
     0.945              -48.37           25.5          79.91          57.03          3.816         -15.55         -82.51          54.32         -32.31          115.9          105.3
    0.9745              -48.29          25.46          79.82          56.95          3.827         -15.45         -82.23          54.21         -31.75          115.9          105.4
     1.004               -48.2          25.42          79.72          56.86           3.84         -15.34         -81.91          54.07         -31.09          115.8          105.5
     1.034               -48.1          25.37          79.61          56.76          3.856         -15.21         -81.52          53.91         -30.32          115.8          105.6
     1.063              -47.97           25.3          79.47          56.63          3.874         -15.06         -81.07          53.72          -29.4          115.7          105.8
     1.093              -47.82          25.23           79.3          56.48          3.896         -14.88         -80.52          53.49         -28.29          115.6          106.0
     1.122              -47.64          25.13           79.1           56.3          3.922         -14.65         -79.87          53.21         -26.96          115.5          106.2
     1.152              -47.41          25.02          78.85          56.08          3.955         -14.38         -79.06          52.87         -25.33          115.4          106.5
     1.181              -47.14          24.88          78.54          55.81          3.994         -14.04         -78.07          52.45         -23.31          115.2          106.8
     1.211              -46.79          24.71          78.16          55.47          4.044         -13.62         -76.83          51.93          -20.8          115.0          107.3
      1.24              -46.36          24.49          77.68          55.04          4.107         -13.09         -75.27          51.27         -17.64          114.7          107.8
      1.27              -45.81          24.21          77.07          54.49          4.186         -12.42         -73.28          50.43         -13.62          114.4          108.5
     1.299              -45.11          23.86          76.29           53.8          4.288         -11.56         -70.74          49.36         -8.472          114.0          109.4
     1.329               -44.2           23.4          75.29           52.9          4.419         -10.46         -67.48          47.98         -1.868          113.5          110.5
     1.358              -43.05          22.81          74.01          51.76          4.586         -9.047         -63.32          46.23          6.568          112.8          112.0
     1.388               -41.6          22.08           72.4          50.32          4.796         -7.274         -58.08          44.02          17.18          112.0          113.8
     1.417              -39.83          21.19          70.44          48.57          5.052         -5.113          -51.7          41.32           30.1          110.9          116.0
     1.447              -37.78          20.15          68.17          46.54          5.349         -2.608         -44.31           38.2          45.08          109.7          118.6
     1.477              -35.56          19.03          65.71          44.34          5.671         0.1049          -36.3          34.82          61.31          108.4          121.4
     1.506              -33.34          17.91          63.25          42.15          5.992          2.817          -28.3          31.44          77.53          107.1          124.2
     1.536              -31.29          16.87          60.98          40.12          6.289          5.322          -20.9          28.32          92.52          105.9          126.8
     1.565              -29.52          15.98          59.02          38.37          6.545          7.483         -14.52          25.63          105.4          104.9          129.0
     1.595              -28.07          15.24          57.41          36.93          6.755          9.257         -9.286          23.42          116.0          104.0          130.8
     1.624              -26.91          14.66          56.13          35.79          6.922          10.67         -5.122          21.66          124.5          103.4          132.3
     1.654              -26.01           14.2          55.13          34.89          7.053          11.77         -1.863          20.29          131.1          102.8          133.4
     1.683              -25.31          13.85          54.35          34.19          7.155          12.63          0.677          19.21          136.2          102.4          134.3
     1.713              -24.76          13.57          53.74          33.65          7.234           13.3          2.661          18.38          140.3          102.1          135.0
     1.742              -24.32          13.35          53.26          33.22          7.297          13.83          4.222          17.72          143.4          101.9          135.6
